<?xml version="1.0" encoding="UTF-8"?>
<svg version="1.1" xmlns="http://www.w3.org/2000/svg" width="512" height="512">
<path d="M0 0 C1.50964794 -0.00418329 3.01929273 -0.00966621 4.5289318 -0.01631981 C8.63752039 -0.03066292 12.7459065 -0.02656493 16.85450566 -0.019153 C21.30113443 -0.01439576 25.74772099 -0.02695367 30.19433594 -0.03717041 C38.890401 -0.05431424 47.58639366 -0.05520757 56.28247122 -0.04995751 C63.35532076 -0.04590613 70.42814901 -0.04737082 77.50099754 -0.05270576 C79.01446314 -0.0538284 79.01446314 -0.0538284 80.5585038 -0.05497371 C82.6086469 -0.05650529 84.65878999 -0.05804363 86.70893308 -0.05958868 C105.90923631 -0.07329788 125.10949872 -0.06788727 144.309801 -0.05640347 C161.84761976 -0.04647393 179.38533296 -0.05940976 196.92313544 -0.08333766 C214.96205966 -0.10776247 233.00093479 -0.11732815 251.03987521 -0.11068493 C261.15489852 -0.10720007 271.26984071 -0.10937615 281.38485146 -0.12693596 C289.99590173 -0.14170034 298.60681376 -0.14223829 307.21786145 -0.12486505 C311.60485361 -0.11638723 315.99159926 -0.11412605 320.37857819 -0.1295166 C324.40620653 -0.14347066 328.43337968 -0.13846505 332.4609824 -0.11927737 C333.90634682 -0.11554955 335.35174866 -0.11834467 336.79707942 -0.12888902 C350.07863997 -0.21877863 364.0943413 1.64680831 375.91105652 8.13768005 C376.56549744 8.48274597 377.21993835 8.82781189 377.89421082 9.18333435 C397.8322419 19.96097909 413.8727804 37.42510285 420.53605652 59.38768005 C423.15447201 69.27989344 423.97039407 78.65424235 423.92373657 88.85162354 C423.92791986 90.36127147 423.93340278 91.87091626 423.94005638 93.38055533 C423.95439949 97.48914393 423.9503015 101.59753004 423.94288957 105.70612919 C423.93813234 110.15275797 423.95069024 114.59934452 423.96090698 119.04595947 C423.97805081 127.74202453 423.97894415 136.43801719 423.97369408 145.13409475 C423.96964271 152.2069443 423.9711074 159.27977254 423.97644234 166.35262108 C423.97719076 167.36159814 423.97793918 168.37057521 423.97871028 169.41012734 C423.98024186 171.46027043 423.98178021 173.51041353 423.98332525 175.56055661 C423.99703445 194.76085984 423.99162384 213.96112226 423.98014004 233.16142454 C423.9702105 250.69924329 423.98314634 268.2369565 424.00707423 285.77475897 C424.03149904 303.81368319 424.04106472 321.85255833 424.0344215 339.89149874 C424.03093665 350.00652205 424.03311272 360.12146425 424.05067253 370.23647499 C424.06543691 378.84752527 424.06597486 387.4584373 424.04860162 396.06948499 C424.0401238 400.45647715 424.03786263 404.8432228 424.05325317 409.23020172 C424.06720723 413.25783007 424.06220162 417.28500321 424.04301394 421.31260594 C424.03928612 422.75797036 424.04208124 424.2033722 424.05262559 425.64870296 C424.1425152 438.93026351 422.27692826 452.94596484 415.78605652 464.76268005 C415.4409906 465.41712097 415.09592468 466.07156189 414.74040222 466.74583435 C403.96275749 486.68386544 386.49863373 502.72440393 364.53605652 509.38768005 C354.64384314 512.00609554 345.26949422 512.82201761 335.07211304 512.77536011 C333.5624651 512.77954339 332.05282031 512.78502632 330.54318124 512.79167992 C326.43459264 512.80602303 322.32620654 512.80192504 318.21760738 512.79451311 C313.77097861 512.78975587 309.32439205 512.80231378 304.8777771 512.81253052 C296.18171204 512.82967435 287.48571938 512.83056768 278.78964182 512.82531761 C271.71679228 512.82126624 264.64396403 512.82273093 257.57111549 512.82806587 C256.56213843 512.82881429 255.55316136 512.82956272 254.51360923 512.83033382 C252.46346614 512.83186539 250.41332305 512.83340374 248.36317996 512.83494879 C229.16287673 512.84865798 209.96261432 512.84324738 190.76231203 512.83176357 C173.22449328 512.82183403 155.68678008 512.83476987 138.1489776 512.85869776 C120.11005338 512.88312258 102.07117824 512.89268826 84.03223783 512.88604504 C73.91721452 512.88256018 63.80227233 512.88473625 53.68726158 512.90229607 C45.0762113 512.91706045 36.46529927 512.9175984 27.85425159 512.90022516 C23.46725942 512.89174734 19.08051377 512.88948616 14.69353485 512.90487671 C10.66590651 512.91883076 6.63873336 512.91382516 2.61113063 512.89463747 C1.16576622 512.89090966 -0.27963562 512.89370478 -1.72496638 512.90424912 C-15.00652694 512.99413874 -29.02222826 511.12855179 -40.83894348 504.63768005 C-41.4933844 504.29261414 -42.14782532 503.94754822 -42.82209778 503.59202576 C-62.76012887 492.81438102 -78.80066736 475.35025726 -85.46394348 453.38768005 C-88.08235897 443.49546667 -88.89828104 434.12111776 -88.85162354 423.92373657 C-88.85580682 422.41408863 -88.86128974 420.90444385 -88.86794335 419.39480478 C-88.88228645 415.28621618 -88.87818847 411.17783007 -88.87077653 407.06923091 C-88.8660193 402.62260214 -88.8785772 398.17601559 -88.88879395 393.72940063 C-88.90593777 385.03333558 -88.90683111 376.33734292 -88.90158104 367.64126536 C-88.89752967 360.56841581 -88.89899436 353.49558756 -88.9043293 346.42273903 C-88.90507772 345.41376196 -88.90582614 344.4047849 -88.90659725 343.36523277 C-88.90812882 341.31508967 -88.90966717 339.26494658 -88.91121221 337.21480349 C-88.92492141 318.01450027 -88.9195108 298.81423785 -88.908027 279.61393557 C-88.89809746 262.07611682 -88.9110333 244.53840361 -88.93496119 227.00060114 C-88.959386 208.96167691 -88.96895168 190.92280178 -88.96230847 172.88386136 C-88.95882361 162.76883805 -88.96099968 152.65389586 -88.97855949 142.53888512 C-88.99332387 133.92783484 -88.99386182 125.31692281 -88.97648858 116.70587512 C-88.96801076 112.31888296 -88.96574959 107.93213731 -88.98114014 103.54515839 C-88.99509419 99.51753004 -88.99008859 95.4903569 -88.9709009 91.46275417 C-88.96717308 90.01738975 -88.96996821 88.57198791 -88.98051255 87.12665715 C-89.07040217 73.8450966 -87.20481522 59.82939527 -80.71394348 48.01268005 C-80.36887756 47.35823914 -80.02381165 46.70379822 -79.66828918 46.02952576 C-68.89064445 26.09149467 -51.42652069 10.05095618 -29.46394348 3.38768005 C-19.5717301 0.76926456 -10.19738118 -0.0466575 0 0 Z " fill="#151618" transform="translate(88.46394348144531,-0.3876800537109375)"/>
<path d="M0 0 C7.68660552 4.05134251 13.39689402 10.56665765 19.41064453 16.70825195 C20.71804563 18.02499455 22.02656699 19.34062569 23.33615112 20.65519714 C26.75687612 24.0948864 30.16230804 27.54932778 33.56463623 31.00720215 C37.04835896 34.54234626 40.54652594 38.0631347 44.04345703 41.58520508 C50.88568964 48.48083854 57.7118313 55.39216393 64.52783203 62.3137207 C63.25452614 65.09332745 61.92954694 67.17115366 59.79394531 69.35400391 C59.24642609 69.91751053 58.69890686 70.48101715 58.13479614 71.06159973 C57.54520111 71.65655746 56.95560608 72.2515152 56.34814453 72.86450195 C55.73897186 73.48270309 55.12979919 74.10090424 54.50216675 74.73783875 C53.21544531 76.03903912 51.9259184 77.33747045 50.63378906 78.63330078 C48.65455278 80.62448957 46.69473317 82.63356878 44.73486328 84.64379883 C43.48210908 85.90601099 42.22824014 87.16711796 40.97314453 88.42700195 C40.38759796 89.03208084 39.80205139 89.63715973 39.19876099 90.26057434 C37.52050781 91.92041016 37.52050781 91.92041016 34.52783203 94.3137207 C30.82763988 94.08506665 29.02299945 92.17410079 26.49365234 89.62011719 C25.71314514 88.83938339 24.93263794 88.0586496 24.128479 87.2542572 C23.29604675 86.40634109 22.4636145 85.55842499 21.60595703 84.68481445 C20.74597107 83.82058365 19.88598511 82.95635284 18.99993896 82.06593323 C16.25212628 79.30131459 13.51492167 76.52645209 10.77783203 73.7512207 C8.91784378 71.87618819 7.05717496 70.00183052 5.19580078 68.12817383 C0.6318823 63.53116053 -3.92336735 58.92569115 -8.47216797 54.3137207 C-12.15251745 55.86068579 -14.50511681 58.09320112 -17.31665039 60.89941406 C-17.78379959 61.36305862 -18.25094879 61.82670319 -18.73225403 62.30439758 C-20.26910497 63.8324732 -21.79855639 65.36771603 -23.32763672 66.90356445 C-24.39540365 67.96998376 -25.4634673 69.03610606 -26.53181458 70.10194397 C-28.76674638 72.3339304 -30.99802854 74.56948637 -33.22680664 76.80761719 C-36.08501419 79.67723271 -38.95212474 82.53775807 -41.82201672 85.39568233 C-44.02777505 87.59421809 -46.2287531 89.79748966 -48.42830849 92.00222969 C-49.48381014 93.05906601 -50.5408009 94.11441726 -51.59929466 95.16825676 C-53.07637758 96.64026646 -54.54690711 98.11852494 -56.01586914 99.59863281 C-57.27351326 100.85866371 -57.27351326 100.85866371 -58.55656433 102.14414978 C-60.66846447 104.25118646 -60.66846447 104.25118646 -61.47216797 107.3137207 C-60.8919136 107.5709491 -60.31165924 107.82817749 -59.71382141 108.09320068 C-57.26906453 109.42430507 -55.59764212 110.90109135 -53.60571289 112.84204102 C-52.8620195 113.56329163 -52.11832611 114.28454224 -51.35209656 115.02764893 C-50.16436394 116.19792633 -50.16436394 116.19792633 -48.95263672 117.3918457 C-48.13467117 118.19603943 -47.31670563 119.00023315 -46.47395325 119.82879639 C-44.74885885 121.5306337 -43.02673398 123.23548562 -41.30737305 124.94311523 C-38.66767672 127.55579393 -36.00500188 130.14351135 -33.34130859 132.73168945 C-31.66860302 134.38774636 -29.99732913 136.04525087 -28.32763672 137.7043457 C-27.52569382 138.47643372 -26.72375092 139.24852173 -25.89750671 140.04400635 C-20.53763087 145.44752111 -20.53763087 145.44752111 -20.24267578 149.3503418 C-21.79610141 153.09448006 -23.43391919 156.73226689 -25.28857422 160.3371582 C-25.66449203 161.08333405 -26.04040985 161.82950989 -26.42771912 162.59829712 C-27.62253585 164.96565526 -28.82839291 167.32718401 -30.03466797 169.6887207 C-30.84985815 171.29902488 -31.66431928 172.90969834 -32.47802734 174.52075195 C-34.46765989 178.45606668 -36.46720894 182.38619387 -38.47216797 186.3137207 C-33.96595853 182.89978892 -30.06234956 179.03016801 -26.0912323 175.02612305 C-25.35756528 174.29048819 -24.62389825 173.55485332 -23.8679989 172.7969265 C-21.41231004 170.33352395 -18.96022099 167.86656882 -16.50805664 165.3996582 C-14.7471675 163.63193803 -12.98602742 161.86446779 -11.22465515 160.097229 C-7.43276223 156.29200898 -3.64227033 152.48540121 0.14722633 148.67779541 C6.13988937 142.65688512 12.13836032 136.6417793 18.13786316 130.62768555 C20.19214065 128.56828406 22.24639308 126.50885759 24.30064678 124.44943237 C24.81398131 123.93481182 25.32731583 123.42019126 25.85620594 122.88997614 C31.69488738 117.03657168 37.53268715 111.18228842 43.36987305 105.32739258 C43.90325771 104.79239317 44.43664238 104.25739376 44.98619022 103.70618224 C53.6305051 95.03532909 62.26918941 86.35888418 70.90626065 77.68081641 C79.78100353 68.76430913 88.66341559 59.85549149 97.55254382 50.95332527 C103.03136069 45.46592222 108.50388812 39.97239562 113.96844711 34.47079325 C118.15806902 30.25397972 122.35815602 26.04769804 126.56217766 21.84523773 C128.28294942 20.12176956 130.0002886 18.39486623 131.71390533 16.66428375 C134.05542066 14.30059718 136.40900074 11.9496054 138.76594543 9.60131836 C139.4396028 8.91532751 140.11326016 8.22933666 140.80733138 7.52255821 C145.65441312 2.73113572 150.61363085 -0.97078016 157.43408203 -2.2175293 C172.56892205 -2.03518183 180.85325906 8.54093503 191.00830078 18.66137695 C192.84797761 20.598029 194.55804754 22.53319046 196.27416992 24.57104492 C201.54998518 30.61198987 207.32268644 36.16868993 213.02878571 41.79814339 C215.14241843 43.88487428 217.25142411 45.9761776 219.35906982 48.06895447 C225.34630616 54.01368627 231.3362869 59.95556441 237.34228516 65.88134766 C241.02889654 69.51938083 244.70562138 73.16715521 248.37612152 76.82143974 C249.77109172 78.20653616 251.16970408 79.58797478 252.57205963 80.96559334 C254.5318489 82.89154538 256.47878433 84.82968092 258.42333984 86.77099609 C259.00000397 87.33170807 259.57666809 87.89242004 260.17080688 88.47012329 C264.8532006 93.18815941 267.93419376 98.25551253 268.02783203 105.1262207 C267.50192108 115.51520494 260.98787592 122.58793339 253.90136719 129.57128906 C253.04381332 130.43599823 252.18625946 131.3007074 251.30271912 132.19161987 C248.97081319 134.5374393 246.62839637 136.87162499 244.27969408 139.20055461 C241.81276357 141.65097533 239.35858077 144.11411072 236.9024353 146.57533264 C232.78046291 150.70181018 228.64847145 154.8180407 224.51025391 158.92822266 C219.73592068 163.67045799 214.977885 168.4285812 210.22819865 173.19549268 C205.64186909 177.79771598 201.04427874 182.38852924 196.44147873 186.97427559 C194.48980257 188.9191055 192.54210128 190.86778977 190.59755325 192.81974602 C187.88093018 195.54549224 185.14792494 198.25443928 182.41308594 200.96191406 C181.61389236 201.76763351 180.81469879 202.57335297 179.99128723 203.40348816 C173.91810147 209.37380894 168.96257296 212.72671092 160.15283203 212.8137207 C152.67639791 212.5991273 147.96818652 210.68269854 142.64501953 205.4699707 C138.17853008 199.90243967 137.90529285 194.71902463 138.02392578 187.7434082 C139.18493667 179.84133412 142.74042262 175.53446171 148.31005859 170.15673828 C148.99485291 169.47939133 149.67964722 168.80204437 150.38519287 168.10417175 C151.86549744 166.64236582 153.35036773 165.18517181 154.83930206 163.73215675 C157.19310857 161.43418518 159.53362225 159.12340131 161.87103271 156.8087616 C167.67352549 151.06763617 173.49581327 145.34674689 179.32202148 139.62969971 C184.25480826 134.78881864 189.1777656 129.93838732 194.08678436 125.0734005 C196.39672016 122.79221825 198.72080127 120.5261151 201.04547119 118.25996399 C202.45213943 116.8682544 203.85808402 115.47581286 205.26318359 114.08251953 C205.91661743 113.45334625 206.57005127 112.82417297 207.24328613 112.17593384 C209.21688717 110.25822164 209.21688717 110.25822164 211.52783203 107.3137207 C211.09121486 103.57740149 209.48754281 101.93279338 206.81835938 99.35888672 C205.64241714 98.2123336 205.64241714 98.2123336 204.44271851 97.0426178 C203.59166534 96.22587082 202.74061218 95.40912384 201.86376953 94.56762695 C200.08471918 92.82650373 198.30608594 91.08495423 196.52783203 89.34301758 C193.71088248 86.60067779 190.88944075 83.86330209 188.06005859 81.13378906 C185.33572362 78.49977533 182.6300993 75.84766176 179.92626953 73.19262695 C179.07116791 72.37790421 178.21606628 71.56318146 177.33505249 70.72377014 C176.16856674 69.57248878 176.16856674 69.57248878 174.97851562 68.39794922 C174.28648041 67.72828629 173.59444519 67.05862335 172.88143921 66.3686676 C171.52783203 64.3137207 171.52783203 64.3137207 171.70753479 61.78900146 C172.42426151 59.62624902 173.17543928 57.6551197 174.2019043 55.625 C174.71232018 54.60450813 174.71232018 54.60450813 175.23304749 53.56340027 C175.59974045 52.8454982 175.96643341 52.12759613 176.34423828 51.38793945 C176.7201561 50.64034866 177.09607391 49.89275787 177.48338318 49.12251282 C178.68007496 46.74586197 179.88506269 44.37353121 181.09033203 42.0012207 C181.90533691 40.38626466 182.71979625 38.77103318 183.53369141 37.15551758 C185.52543245 33.20503318 187.52462212 29.25840101 189.52783203 25.3137207 C185.32485062 28.51515103 181.67365978 32.06786844 177.98486328 35.8293457 C176.73434375 37.09249675 175.48368879 38.35551372 174.23291016 39.6184082 C172.27567121 41.60058485 170.32006932 43.58432685 168.36694336 45.57055664 C166.4730693 47.49447717 164.57315359 49.4122616 162.67236328 51.3293457 C162.0859053 51.92926331 161.49944733 52.52918091 160.8952179 53.14727783 C159.47692778 54.57437215 158.00682706 55.94963905 156.52783203 57.3137207 C155.86783203 57.3137207 155.20783203 57.3137207 154.52783203 57.3137207 C154.20891086 58.11957658 154.20891086 58.11957658 153.88354683 58.94171238 C152.02228534 62.19824374 149.47693 64.64336824 146.83639526 67.26585388 C146.24821585 67.85785884 145.66003643 68.44986381 145.0540334 69.05980831 C143.07983088 71.04433798 141.0985429 73.02163706 139.1171875 74.99902344 C137.70091079 76.41964689 136.2850528 77.8406879 134.86958313 79.26211548 C131.02077298 83.12433399 127.16556215 86.98010284 123.30877829 90.83435702 C120.08896122 94.05310516 116.87212399 97.2748232 113.65523922 100.49650151 C106.06336689 108.09947637 98.46616891 115.69710086 90.86572266 123.29150391 C83.02952087 131.12167058 75.20252808 138.96095635 67.38000762 146.80478901 C60.66174874 153.54067656 53.93768306 160.27072874 47.20897782 166.99618107 C43.19126478 171.01208242 39.17580132 175.03016928 35.16595078 179.05392265 C31.39208073 182.8403861 27.61099699 186.61949609 23.82431602 190.39314651 C22.43825675 191.77684341 21.05473327 193.16308597 19.67399406 194.5520916 C17.78327331 196.45331027 15.88345852 198.34496868 13.98117065 200.23460388 C13.44165012 200.7814987 12.90212959 201.32839352 12.34625995 201.8918609 C6.30719389 207.84719889 -0.0232215 212.4179283 -8.72216797 212.5637207 C-21.65363604 212.37680067 -29.33162986 202.59766821 -37.93603516 194.04272461 C-39.14246925 192.84855675 -39.14246925 192.84855675 -40.37327576 191.63026428 C-43.00820885 189.01995159 -45.6391595 186.4056829 -48.26904297 183.7902832 C-49.17241646 182.89223339 -50.07578995 181.99418358 -51.00653839 181.06892014 C-54.80218276 177.29444219 -58.59680623 173.51895242 -62.38753891 169.73954201 C-67.78995197 164.353384 -73.20070325 158.97592303 -78.62334895 153.61013281 C-82.91737718 149.35958201 -87.19752337 145.09531191 -91.47306061 140.8261528 C-93.28525994 139.02065786 -95.10170482 137.21941353 -96.92250824 135.42259598 C-99.46889015 132.90787972 -101.99899567 130.37779411 -104.52587891 127.84350586 C-105.64962166 126.74437111 -105.64962166 126.74437111 -106.79606628 125.62303162 C-112.0404373 120.31564683 -115.58882737 114.94476368 -117.00341797 107.52856445 C-116.75604944 89.50158292 -97.58093667 76.24610986 -85.81201172 64.45043945 C-84.96971071 63.60531107 -84.12740971 62.76018269 -83.25958443 61.88944435 C-78.81157464 57.42652958 -74.36076391 52.96643162 -69.9074707 48.50878906 C-65.3222795 43.91809208 -60.74645751 39.31817268 -56.17272091 34.71606731 C-52.63721912 31.16192001 -49.09500594 27.61451957 -45.55093575 24.06891823 C-43.86083176 22.3757971 -42.17321774 20.68018649 -40.48820305 18.98200035 C-38.13175724 16.6084368 -35.76595767 14.24458796 -33.39770508 11.8828125 C-32.36802109 10.83930634 -32.36802109 10.83930634 -31.3175354 9.77471924 C-22.67201731 1.20278908 -12.32858601 -5.64702845 0 0 Z " fill="#FDFDFD" transform="translate(180.47216796875,149.686279296875)"/>
<path d="M0 0 C7.68660552 4.05134251 13.39689402 10.56665765 19.41064453 16.70825195 C20.71804563 18.02499455 22.02656699 19.34062569 23.33615112 20.65519714 C26.75687612 24.0948864 30.16230804 27.54932778 33.56463623 31.00720215 C37.04835896 34.54234626 40.54652594 38.0631347 44.04345703 41.58520508 C50.88568964 48.48083854 57.7118313 55.39216393 64.52783203 62.3137207 C63.25452614 65.09332745 61.92954694 67.17115366 59.79394531 69.35400391 C59.24642609 69.91751053 58.69890686 70.48101715 58.13479614 71.06159973 C57.54520111 71.65655746 56.95560608 72.2515152 56.34814453 72.86450195 C55.73897186 73.48270309 55.12979919 74.10090424 54.50216675 74.73783875 C53.21544531 76.03903912 51.9259184 77.33747045 50.63378906 78.63330078 C48.65455278 80.62448957 46.69473317 82.63356878 44.73486328 84.64379883 C43.48210908 85.90601099 42.22824014 87.16711796 40.97314453 88.42700195 C40.38759796 89.03208084 39.80205139 89.63715973 39.19876099 90.26057434 C37.52050781 91.92041016 37.52050781 91.92041016 34.52783203 94.3137207 C30.82763988 94.08506665 29.02299945 92.17410079 26.49365234 89.62011719 C25.71314514 88.83938339 24.93263794 88.0586496 24.128479 87.2542572 C23.29604675 86.40634109 22.4636145 85.55842499 21.60595703 84.68481445 C20.74597107 83.82058365 19.88598511 82.95635284 18.99993896 82.06593323 C16.25212628 79.30131459 13.51492167 76.52645209 10.77783203 73.7512207 C8.91784378 71.87618819 7.05717496 70.00183052 5.19580078 68.12817383 C0.6318823 63.53116053 -3.92336735 58.92569115 -8.47216797 54.3137207 C-12.15251745 55.86068579 -14.50511681 58.09320112 -17.31665039 60.89941406 C-17.78379959 61.36305862 -18.25094879 61.82670319 -18.73225403 62.30439758 C-20.26910497 63.8324732 -21.79855639 65.36771603 -23.32763672 66.90356445 C-24.39540365 67.96998376 -25.4634673 69.03610606 -26.53181458 70.10194397 C-28.76674638 72.3339304 -30.99802854 74.56948637 -33.22680664 76.80761719 C-36.08501419 79.67723271 -38.95212474 82.53775807 -41.82201672 85.39568233 C-44.02777505 87.59421809 -46.2287531 89.79748966 -48.42830849 92.00222969 C-49.48381014 93.05906601 -50.5408009 94.11441726 -51.59929466 95.16825676 C-53.07637758 96.64026646 -54.54690711 98.11852494 -56.01586914 99.59863281 C-57.27351326 100.85866371 -57.27351326 100.85866371 -58.55656433 102.14414978 C-60.66846447 104.25118646 -60.66846447 104.25118646 -61.47216797 107.3137207 C-60.8919136 107.5709491 -60.31165924 107.82817749 -59.71382141 108.09320068 C-57.26906453 109.42430507 -55.59764212 110.90109135 -53.60571289 112.84204102 C-52.8620195 113.56329163 -52.11832611 114.28454224 -51.35209656 115.02764893 C-50.16436394 116.19792633 -50.16436394 116.19792633 -48.95263672 117.3918457 C-48.13467117 118.19603943 -47.31670563 119.00023315 -46.47395325 119.82879639 C-44.74885885 121.5306337 -43.02673398 123.23548562 -41.30737305 124.94311523 C-38.66767672 127.55579393 -36.00500188 130.14351135 -33.34130859 132.73168945 C-31.66860302 134.38774636 -29.99732913 136.04525087 -28.32763672 137.7043457 C-27.52569382 138.47643372 -26.72375092 139.24852173 -25.89750671 140.04400635 C-20.53763087 145.44752111 -20.53763087 145.44752111 -20.24267578 149.3503418 C-21.79610141 153.09448006 -23.43391919 156.73226689 -25.28857422 160.3371582 C-25.66449203 161.08333405 -26.04040985 161.82950989 -26.42771912 162.59829712 C-27.62253585 164.96565526 -28.82839291 167.32718401 -30.03466797 169.6887207 C-30.84985815 171.29902488 -31.66431928 172.90969834 -32.47802734 174.52075195 C-34.46765989 178.45606668 -36.46720894 182.38619387 -38.47216797 186.3137207 C-33.95356055 182.88847191 -30.02866961 179.00742907 -26.03739929 174.99920654 C-25.29808774 174.26074942 -24.55877619 173.52229229 -23.79706126 172.76145768 C-21.32269317 170.28873548 -18.85191397 167.81245835 -16.38110352 165.33618164 C-14.60720434 163.56200038 -12.83308491 161.78803932 -11.0587616 160.01428223 C-7.24043593 156.19618421 -3.42364692 152.37656045 0.39174843 148.55553436 C5.90813499 143.03101206 11.42728905 137.50926139 16.94711699 131.98817781 C25.9031447 123.02996284 34.85693813 114.06951817 43.80932617 105.10766602 C52.50444181 96.40336782 61.20060975 87.70012317 69.89819336 78.99829102 C70.43453895 78.46168271 70.97088453 77.9250744 71.52348302 77.37220523 C74.21424545 74.68013773 76.90502857 71.98809091 79.59582198 69.29605436 C101.90969969 46.97181419 124.21991384 24.64391612 146.52783203 2.3137207 C147.18783203 2.6437207 147.84783203 2.9737207 148.52783203 3.3137207 C86.48783203 65.3537207 24.44783203 127.3937207 -39.47216797 191.3137207 C-44.24638965 187.22153069 -48.81380417 183.13260285 -53.26196289 178.71679688 C-53.90029556 178.08664169 -54.53862823 177.45648651 -55.19630432 176.80723572 C-57.28474563 174.74338869 -59.36922416 172.67561226 -61.45263672 170.60668945 C-62.16937372 169.89527613 -62.88611073 169.1838628 -63.62456703 168.45089149 C-67.412512 164.68955606 -71.19685403 160.92463359 -74.97875977 157.15722656 C-78.09782134 154.05153018 -81.22399709 150.95327373 -84.35668945 147.86132812 C-88.15605418 144.11135974 -91.94292275 140.34919154 -95.7212162 136.57799721 C-97.1566164 135.14928967 -98.5962521 133.72482375 -100.04027367 132.30483055 C-102.06237753 130.31449056 -104.06798321 128.30879225 -106.07055664 126.29882812 C-106.95821213 125.43578064 -106.95821213 125.43578064 -107.86380005 124.55529785 C-112.6383068 119.708673 -115.72000215 114.2570606 -117.00341797 107.52856445 C-116.75604944 89.50158292 -97.58093667 76.24610986 -85.81201172 64.45043945 C-84.96971071 63.60531107 -84.12740971 62.76018269 -83.25958443 61.88944435 C-78.81157464 57.42652958 -74.36076391 52.96643162 -69.9074707 48.50878906 C-65.3222795 43.91809208 -60.74645751 39.31817268 -56.17272091 34.71606731 C-52.63721912 31.16192001 -49.09500594 27.61451957 -45.55093575 24.06891823 C-43.86083176 22.3757971 -42.17321774 20.68018649 -40.48820305 18.98200035 C-38.13175724 16.6084368 -35.76595767 14.24458796 -33.39770508 11.8828125 C-32.36802109 10.83930634 -32.36802109 10.83930634 -31.3175354 9.77471924 C-22.67201731 1.20278908 -12.32858601 -5.64702845 0 0 Z " fill="#FCFCFC" transform="translate(180.47216796875,149.686279296875)"/>
<path d="M0 0 C0.68552948 0.68683868 1.37105896 1.37367737 2.07736206 2.08132935 C5.29452686 5.29837084 8.52858333 8.49824763 11.76220703 11.69873047 C18.46801357 18.33917148 25.16362054 24.98980123 31.85351753 31.64626884 C35.89562981 35.66746697 39.9414142 39.68482504 43.99560547 43.69384766 C47.92643228 47.5811732 51.84736936 51.47822648 55.76168442 55.38217545 C57.25169224 56.86480926 58.74520855 58.34392597 60.24231339 59.81939316 C62.33651849 61.88450184 64.4178083 63.96185479 66.49658203 66.04248047 C67.1137912 66.64530853 67.73100037 67.2481366 68.36691284 67.86923218 C73.16433601 72.71301136 76.40364652 77.74256318 76.5 84.8125 C75.97408905 95.20148423 69.46004389 102.27421269 62.37353516 109.25756836 C61.51598129 110.12227753 60.65842743 110.98698669 59.77488708 111.87789917 C57.44298116 114.2237186 55.10056433 116.55790428 52.75186205 118.88683391 C50.28493153 121.33725462 47.83074874 123.80039002 45.37460327 126.26161194 C41.25263088 130.38808948 37.12063942 134.50432 32.98242188 138.61450195 C28.20808865 143.35673728 23.45005297 148.11486049 18.70036662 152.88177198 C14.11403705 157.48399527 9.51644671 162.07480854 4.9136467 166.66055489 C2.96197054 168.6053848 1.01426925 170.55406907 -0.93027878 172.50602531 C-3.64690185 175.23177153 -6.37990709 177.94071858 -9.11474609 180.64819336 C-9.91393967 181.45391281 -10.71313324 182.25963226 -11.5365448 183.08976746 C-17.60973056 189.06008824 -22.56525907 192.41299021 -31.375 192.5 C-38.85143412 192.2854066 -43.55964551 190.36897784 -48.8828125 185.15625 C-53.34930195 179.58871897 -53.62253918 174.40530393 -53.50390625 167.4296875 C-52.34289537 159.52761342 -48.78740941 155.220741 -43.21777344 149.84301758 C-42.53297913 149.16567062 -41.84818481 148.48832367 -41.14263916 147.79045105 C-39.66233459 146.32864511 -38.1774643 144.87145111 -36.68852997 143.41843605 C-34.33472346 141.12046448 -31.99420978 138.80968061 -29.65679932 136.49504089 C-23.85430654 130.75391547 -18.03201876 125.03302618 -12.20581055 119.315979 C-7.27302378 114.47509794 -2.35006643 109.62466662 2.55895233 104.75967979 C4.86888812 102.47849755 7.19296924 100.2123944 9.51763916 97.94624329 C10.9243074 96.55453369 12.33025199 95.16209216 13.73535156 93.76879883 C14.3887854 93.13962555 15.04221924 92.51045227 15.7154541 91.86221313 C17.68905514 89.94450094 17.68905514 89.94450094 20 87 C19.56338283 83.26368079 17.95971078 81.61907268 15.29052734 79.04516602 C14.50656586 78.28079727 13.72260437 77.51642853 12.91488647 76.72889709 C12.06383331 75.91215012 11.21278015 75.09540314 10.3359375 74.25390625 C8.55688714 72.51278303 6.7782539 70.77123352 5 69.02929688 C2.18305045 66.28695709 -0.63839128 63.54958139 -3.46777344 60.82006836 C-6.19210841 58.18605462 -8.89773273 55.53394105 -11.6015625 52.87890625 C-12.45666412 52.0641835 -13.31176575 51.24946075 -14.19277954 50.41004944 C-14.97043671 49.64252853 -15.74809387 48.87500763 -16.54931641 48.08422852 C-17.24135162 47.41456558 -17.93338684 46.74490265 -18.64639282 46.0549469 C-20 44 -20 44 -19.81930542 41.47131348 C-18.62828964 37.87879074 -16.94802379 34.56989836 -15.21875 31.21484375 C-14.84520386 30.47673965 -14.47165771 29.73863556 -14.08679199 28.97816467 C-12.89690499 26.62832425 -11.69915778 24.28262129 -10.5 21.9375 C-9.3015493 19.58846927 -8.10493589 17.23857271 -6.91320801 14.88612366 C-6.17275267 13.42492613 -5.42835875 11.96571611 -4.67956543 10.5087738 C-3.07656622 7.34954629 -1.85157046 4.4221681 -1 1 C-0.67 0.67 -0.34 0.34 0 0 Z " fill="#979798" transform="translate(372,170)"/>
<path d="M0 0 C0.99 0.495 0.99 0.495 2 1 C-60.04 63.04 -122.08 125.08 -186 189 C-186.66 188.34 -187.32 187.68 -188 187 C-187.48086344 186.55173387 -186.96172688 186.10346773 -186.4268589 185.64161777 C-177.40985824 177.69887849 -169.00848148 169.14120338 -160.52490234 160.63842773 C-158.76997002 158.88321297 -157.01481674 157.1282191 -155.25946045 155.37342834 C-151.49742674 151.61162138 -147.73691778 147.84830046 -143.97782516 144.08355522 C-138.54297247 138.64053539 -133.1053225 133.20031702 -127.6670111 127.76075316 C-118.84131388 118.93287357 -110.01784675 110.10276855 -101.19580078 101.27124023 C-92.6318764 92.69812058 -84.06689025 84.12606397 -75.50048828 75.55541992 C-74.9714303 75.02609922 -74.44237233 74.49677852 -73.89728229 73.9514178 C-71.24284121 71.29567157 -68.58837939 68.63994607 -65.93390727 65.98423088 C-43.95272283 43.99269922 -21.97520316 21.99750858 0 0 Z " fill="#F1F1F1" transform="translate(327,152)"/>
</svg>
