<?xml version="1.0" encoding="UTF-8"?>
<svg version="1.1" xmlns="http://www.w3.org/2000/svg" width="1280" height="960">
<path d="M0 0 C0.7995813 0.00054382 1.5991626 0.00108765 2.42297363 0.00164795 C14.51064735 0.03948436 25.91690617 0.62414703 37.5 4.375 C38.17256836 4.58398926 38.84513672 4.79297852 39.53808594 5.00830078 C56.06362243 10.26857527 70.77366815 18.91446208 84.5 29.375 C85.27327637 29.96200684 86.04655273 30.54901367 86.84326172 31.15380859 C90.36983064 33.83296555 93.89293528 36.5165322 97.40917969 39.20922852 C103.22705235 43.66220284 109.08858864 48.04712433 115 52.375 C122.62752689 57.9614476 130.15644967 63.66776646 137.6640625 69.4140625 C143.39902727 73.79564326 149.17759563 78.11042958 155 82.375 C162.62740017 87.9616242 170.15644565 93.66776338 177.6640625 99.4140625 C183.39902727 103.79564326 189.17759563 108.11042958 195 112.375 C202.62740017 117.9616242 210.15644565 123.66776338 217.6640625 129.4140625 C223.39902727 133.79564326 229.17759563 138.11042958 235 142.375 C242.62740017 147.9616242 250.15644565 153.66776338 257.6640625 159.4140625 C263.39902727 163.79564326 269.17759563 168.11042958 275 172.375 C282.62740017 177.9616242 290.15644565 183.66776338 297.6640625 189.4140625 C303.39902727 193.79564326 309.17759563 198.11042958 315 202.375 C322.62740017 207.9616242 330.15644565 213.66776338 337.6640625 219.4140625 C343.39902727 223.79564326 349.17759563 228.11042958 355 232.375 C362.62740017 237.9616242 370.15644565 243.66776338 377.6640625 249.4140625 C383.39902727 253.79564326 389.17759563 258.11042958 395 262.375 C402.62740017 267.9616242 410.15644565 273.66776338 417.6640625 279.4140625 C423.39902727 283.79564326 429.17759563 288.11042958 435 292.375 C442.62740017 297.9616242 450.15644565 303.66776338 457.6640625 309.4140625 C464.15550147 314.37359847 470.70958936 319.23966496 477.30517578 324.05957031 C481.63672213 327.23440206 485.92582785 330.45598671 490.1796875 333.734375 C491.12908203 334.46527344 492.07847656 335.19617188 493.05664062 335.94921875 C494.89521839 337.36860588 496.73004566 338.79286839 498.56054688 340.22265625 C499.39392578 340.86589844 500.22730469 341.50914062 501.0859375 342.171875 C501.8186084 342.74260742 502.5512793 343.31333984 503.30615234 343.90136719 C505.72013486 345.52286713 507.66809986 346.66813118 510.5 347.375 C512.81149489 346.40833898 512.81149489 346.40833898 514.9140625 344.5625 C515.74744141 343.90636719 516.58082031 343.25023437 517.43945312 342.57421875 C518.32568359 341.84847656 519.21191406 341.12273437 520.125 340.375 C522.02225252 338.87350147 523.92071387 337.37352927 525.8203125 335.875 C527.25165527 334.73417969 527.25165527 334.73417969 528.71191406 333.5703125 C532.73463282 330.40286179 536.85913366 327.38526335 541 324.375 C547.72686806 319.45200843 554.38059279 314.4414671 561 309.375 C568.38641792 303.72146605 575.83194466 298.16029806 583.3359375 292.6640625 C589.27671433 288.30222968 595.1475326 283.85445452 601 279.375 C608.38641792 273.72146605 615.83194466 268.16029806 623.3359375 262.6640625 C629.27671433 258.30222968 635.1475326 253.85445452 641 249.375 C648.38641792 243.72146605 655.83194466 238.16029806 663.3359375 232.6640625 C669.27671433 228.30222968 675.1475326 223.85445452 681 219.375 C688.38641792 213.72146605 695.83194466 208.16029806 703.3359375 202.6640625 C709.27671433 198.30222968 715.1475326 193.85445452 721 189.375 C728.38641792 183.72146605 735.83194466 178.16029806 743.3359375 172.6640625 C749.27671433 168.30222968 755.1475326 163.85445452 761 159.375 C768.38641792 153.72146605 775.83194466 148.16029806 783.3359375 142.6640625 C789.27671433 138.30222968 795.1475326 133.85445452 801 129.375 C808.38641792 123.72146605 815.83194466 118.16029806 823.3359375 112.6640625 C829.27671433 108.30222968 835.1475326 103.85445452 841 99.375 C848.38641792 93.72146605 855.83194466 88.16029806 863.3359375 82.6640625 C869.27671433 78.30222968 875.1475326 73.85445452 881 69.375 C888.38477318 63.72272492 895.82739424 58.16102244 903.33154297 52.66845703 C908.41225096 48.9400689 913.43796257 45.14690841 918.43798828 41.31103516 C939.29584536 25.31230451 959.67163868 10.15564823 985.5 3.375 C986.49531738 3.10792236 987.49063477 2.84084473 988.51611328 2.56567383 C997.53984812 0.37122122 1006.14423133 -0.12141106 1015.37548828 -0.07104492 C1017.73429513 -0.06255652 1020.09065014 -0.09138659 1022.44921875 -0.12304688 C1057.78039925 -0.2856126 1089.61786212 16.11578074 1114.5 40.375 C1136.27723483 62.08141455 1149.61943012 93.46439961 1149.76972538 124.2196821 C1149.76561475 125.42213905 1149.76150411 126.62459601 1149.75726891 127.86349106 C1149.76077498 129.17596813 1149.76428105 130.4884452 1149.76789337 131.84069431 C1149.77728914 135.46584187 1149.77437111 139.09088812 1149.76933783 142.71604044 C1149.76605651 146.66683358 1149.77436589 150.61760572 1149.78115618 154.56839204 C1149.79144254 161.48691896 1149.79430235 168.40541791 1149.79224396 175.32395172 C1149.78919047 185.61234715 1149.79752562 195.90071168 1149.80799321 206.1891011 C1149.82732471 225.63433429 1149.8329611 245.07955693 1149.83410732 264.5247986 C1149.83502672 279.54154084 1149.83914502 294.55827894 1149.84550858 309.57501984 C1149.84730368 313.89893921 1149.84908331 318.22285858 1149.85085833 322.54677796 C1149.85130043 323.62173985 1149.85174252 324.69670174 1149.85219802 325.80423823 C1149.8645045 356.03631992 1149.87239933 386.26840017 1149.87151146 416.50048447 C1149.8714803 417.6400569 1149.87144914 418.77962933 1149.87141704 419.95373427 C1149.87125083 425.72945299 1149.87105275 431.50517171 1149.87084763 437.28089043 C1149.87078779 439.00148372 1149.87078779 439.00148372 1149.87072675 440.75683646 C1149.87064587 443.0764746 1149.87056228 445.39611275 1149.87047596 447.71575089 C1149.86925036 483.80823806 1149.8842661 519.90068765 1149.91162109 555.99316406 C1149.94234721 596.55017572 1149.9595533 637.10716269 1149.95769465 677.66418672 C1149.95754539 681.98936351 1149.95744798 686.3145403 1149.95738602 690.6397171 C1149.95735105 692.2371502 1149.95735105 692.2371502 1149.95731538 693.86685467 C1149.95725386 710.99801432 1149.97002057 728.12914131 1149.98725055 745.26029125 C1150.00421031 762.47894722 1150.00617812 779.69755545 1149.9930319 796.91621515 C1149.98564535 807.14206376 1149.98929199 817.36776731 1150.00891658 827.59360053 C1150.02092641 834.42986156 1150.01831436 841.26601766 1150.00397559 848.1022739 C1149.99622114 851.99357926 1149.99463584 855.88460415 1150.01089029 859.77588961 C1150.12686549 889.49647147 1150.12686549 889.49647147 1145.5 902.375 C1145.05502462 903.61383556 1144.61004924 904.85267112 1144.15158975 906.12904716 C1135.92495096 927.85224476 1118.68875121 943.81216544 1098.10546875 953.80078125 C1024.88217892 985.77151343 938.39854748 960.375 858.5 960.375 C858.5 797.685 858.5 634.995 858.5 467.375 C843.67037476 478.27489939 843.67037476 478.27489939 829 489.375 C821.61503204 495.03040297 814.16801745 500.5897297 806.6640625 506.0859375 C800.72328567 510.44777032 794.8524674 514.89554548 789 519.375 C781.61358208 525.02853395 774.16805534 530.58970194 766.6640625 536.0859375 C760.72328567 540.44777032 754.8524674 544.89554548 749 549.375 C741.61358208 555.02853395 734.16805534 560.58970194 726.6640625 566.0859375 C720.72328567 570.44777032 714.8524674 574.89554548 709 579.375 C701.61358208 585.02853395 694.16805534 590.58970194 686.6640625 596.0859375 C680.72328567 600.44777032 674.8524674 604.89554548 669 609.375 C661.61358208 615.02853395 654.16805534 620.58970194 646.6640625 626.0859375 C640.72328567 630.44777032 634.8524674 634.89554548 629 639.375 C621.61358208 645.02853395 614.16805534 650.58970194 606.6640625 656.0859375 C600.72328567 660.44777032 594.8524674 664.89554548 589 669.375 C581.61358208 675.02853395 574.16805534 680.58970194 566.6640625 686.0859375 C559.83066631 691.10314866 553.09353084 696.2411983 546.36230469 701.39428711 C539.62581183 706.54178374 532.82603954 711.59695179 525.97851562 716.59570312 C520.74185578 720.42591897 515.6018988 724.36711507 510.5 728.375 C507.67250036 727.04058629 505.20389432 725.53730649 502.69140625 723.6796875 C501.95535156 723.13699219 501.21929688 722.59429688 500.4609375 722.03515625 C499.27371094 721.15150391 499.27371094 721.15150391 498.0625 720.25 C497.22847656 719.63253906 496.39445313 719.01507812 495.53515625 718.37890625 C488.42118754 713.09636103 481.37657862 707.72441831 474.34008789 702.33935547 C468.60395425 697.95634751 462.82385044 693.64062959 457 689.375 C449.37259983 683.7883758 441.84355435 678.08223662 434.3359375 672.3359375 C428.60097273 667.95435674 422.82240437 663.63957042 417 659.375 C409.37259983 653.7883758 401.84355435 648.08223662 394.3359375 642.3359375 C388.60097273 637.95435674 382.82240437 633.63957042 377 629.375 C369.37259983 623.7883758 361.84355435 618.08223662 354.3359375 612.3359375 C348.60097273 607.95435674 342.82240437 603.63957042 337 599.375 C329.37259983 593.7883758 321.84355435 588.08223662 314.3359375 582.3359375 C308.60097273 577.95435674 302.82240437 573.63957042 297 569.375 C289.37259983 563.7883758 281.84355435 558.08223662 274.3359375 552.3359375 C268.60097273 547.95435674 262.82240437 543.63957042 257 539.375 C249.37259983 533.7883758 241.84355435 528.08223662 234.3359375 522.3359375 C228.60097273 517.95435674 222.82240437 513.63957042 217 509.375 C210.27502682 504.44935075 203.6195557 499.44140797 197 494.375 C184.97740454 485.17580843 172.8185409 476.17395778 160.5 467.375 C160.5 630.065 160.5 792.755 160.5 960.375 C-80.31901708 960.375 -80.31901708 960.375 -106.8125 934.625 C-123.18617705 917.96911085 -131.01055019 895.94429515 -130.88031673 872.77463436 C-130.88497665 871.46220183 -130.88963657 870.1497693 -130.8944377 868.79756609 C-130.90686575 865.17713131 -130.90083452 861.55693429 -130.89160402 857.93649881 C-130.88486451 853.9890609 -130.89557521 850.04166247 -130.90399987 846.0942331 C-130.91634946 839.18302713 -130.91758659 832.27188908 -130.91144943 825.36067581 C-130.90234732 815.08297797 -130.91039938 804.80534277 -130.92174067 794.52764972 C-130.9414003 776.16818544 -130.94375623 757.8087494 -130.93854547 739.44927711 C-130.93398652 723.37813323 -130.93458967 707.30700053 -130.94038582 691.23585701 C-130.94114269 689.07924787 -130.94189867 686.92263873 -130.94265376 684.76602959 C-130.94379897 681.51609132 -130.94494885 678.26615307 -130.94611301 675.01621481 C-130.95681739 644.80235329 -130.96154404 614.58849549 -130.95364285 584.37463284 C-130.95334567 583.23582729 -130.9530485 582.09702175 -130.95274232 580.92370695 C-130.95029345 571.67613074 -130.94768183 562.42855457 -130.94505819 553.18097841 C-130.93495914 517.12185528 -130.94330493 481.06277874 -130.96655273 445.00366211 C-130.99263912 404.47626727 -131.00546933 363.94890047 -130.99836498 323.42149693 C-130.99764894 319.09794907 -130.99697455 314.77440121 -130.99632454 310.45085335 C-130.99615473 309.38631414 -130.99598492 308.32177494 -130.99580997 307.22497697 C-130.99350915 291.17114239 -131.00147372 275.1173339 -131.01461601 259.06350517 C-131.02954202 240.7984084 -131.03035083 222.53337264 -131.0125451 204.26827716 C-131.00299733 194.05437627 -131.00438574 183.84061776 -131.02177979 173.62672644 C-131.03229994 166.7933545 -131.02812593 159.96009056 -131.01229975 153.12672919 C-131.0037013 149.24037663 -131.00116053 145.3543022 -131.01656907 141.46796434 C-131.08867021 121.94935444 -130.54754905 102.97212689 -123.25 84.5625 C-122.95335449 83.790271 -122.65670898 83.01804199 -122.35107422 82.22241211 C-109.1318387 48.77478415 -83.15246316 24.24816495 -50.734375 9.57421875 C-43.52988661 6.45500877 -36.16130589 4.09834736 -28.5 2.375 C-27.35096191 2.10115479 -27.35096191 2.10115479 -26.17871094 1.82177734 C-17.50924289 -0.02282527 -8.81972613 -0.02249351 0 0 Z " fill="#EA4235" transform="translate(130.5,-0.375)"/>
<path d="M0 0 C2.81047932 1.37485407 5.29057247 2.83360251 7.80859375 4.6953125 C8.54464844 5.23800781 9.28070313 5.78070313 10.0390625 6.33984375 C10.83054687 6.92894531 11.62203125 7.51804688 12.4375 8.125 C13.27152344 8.74246094 14.10554687 9.35992187 14.96484375 9.99609375 C22.07881246 15.27863897 29.12342138 20.65058169 36.15991211 26.03564453 C41.89604575 30.41865249 47.67614956 34.73437041 53.5 39 C61.12740017 44.5866242 68.65644565 50.29276338 76.1640625 56.0390625 C81.89902727 60.42064326 87.67759563 64.73542958 93.5 69 C101.12740017 74.5866242 108.65644565 80.29276338 116.1640625 86.0390625 C121.89902727 90.42064326 127.67759563 94.73542958 133.5 99 C141.12740017 104.5866242 148.65644565 110.29276338 156.1640625 116.0390625 C161.89902727 120.42064326 167.67759563 124.73542958 173.5 129 C181.12740017 134.5866242 188.65644565 140.29276338 196.1640625 146.0390625 C201.89902727 150.42064326 207.67759563 154.73542958 213.5 159 C221.12740017 164.5866242 228.65644565 170.29276338 236.1640625 176.0390625 C242.6575178 181.00013897 249.21658485 185.86350775 255.80957031 190.69116211 C262.90363623 195.89877711 269.90284928 201.22721387 276.88476562 206.58398438 C277.71169922 207.21755859 278.53863281 207.85113281 279.390625 208.50390625 C280.11282227 209.05892822 280.83501953 209.6139502 281.57910156 210.18579102 C283.82644706 211.95200891 283.82644706 211.95200891 285.73738456 212.97751049 C287.73871353 214.17638176 289.36388019 215.33202552 291 217 C291.71587232 220.12483366 291.93484341 222.22380274 291.8613348 225.34583759 C291.86941171 226.18735179 291.87748862 227.02886598 291.88581029 227.89588061 C291.90441109 230.72934906 291.87288678 233.56005948 291.84178162 236.39338684 C291.84483294 238.43948494 291.85095977 240.48558039 291.85990578 242.53166121 C291.87559537 248.16449209 291.84750817 253.79639539 291.81245935 259.42910802 C291.78229209 265.49928832 291.79245532 271.56941429 291.79777527 277.63964844 C291.80144968 288.16009684 291.77969001 298.68027669 291.7401104 309.2006321 C291.69870232 320.23526254 291.67175108 331.26977203 291.6641407 342.3044796 C291.66365952 342.99037756 291.66317835 343.67627551 291.66268259 344.38295826 C291.66031428 347.86623559 291.65820459 351.34951302 291.65619446 354.83279058 C291.64148847 379.50994731 291.59431842 404.18694598 291.52807617 428.86401367 C291.46379384 452.83861449 291.41420434 476.81317207 291.38452148 500.7878418 C291.3836008 501.52674184 291.38268012 502.26564189 291.38173154 503.02693284 C291.37250196 510.44721739 291.36357125 517.86750227 291.35485952 525.28778743 C291.33710565 540.40399337 291.31735688 555.52019649 291.29640198 570.63639832 C291.29544095 571.33142888 291.29447992 572.02645945 291.29348977 572.74255155 C291.2290765 619.16176806 291.11801358 665.58089206 291 712 C262.98307878 712.09360471 234.96618114 712.16405821 206.94913483 712.20724869 C193.93918111 712.22783932 180.92932479 712.25589292 167.91943359 712.30175781 C156.57481076 712.34173279 145.2302585 712.36745822 133.88556719 712.37635398 C127.88335461 712.38155067 121.88134382 712.39369162 115.87919617 712.42292023 C110.21900169 712.45025788 104.55909037 712.45840814 98.89883614 712.45243073 C96.83179239 712.4535228 94.76473825 712.46136643 92.697752 712.4768219 C65.88571328 712.66731237 43.15783584 705.17394252 23.6875 686.25 C13.90911732 676.30307987 7.0978513 664.31591657 3 651 C2.74608087 650.22990563 2.49216174 649.45981126 2.23054808 648.6663807 C-1.11546023 636.74937578 -0.40591169 624.48500027 -0.36076355 612.21574402 C-0.36207265 609.57289148 -0.3645748 606.93006438 -0.36853105 604.28721696 C-0.37472712 598.5530484 -0.3698642 592.8189736 -0.35761642 587.08481598 C-0.3394555 578.55845238 -0.33861418 570.03214745 -0.34124239 561.50576803 C-0.34517756 547.1606643 -0.33518472 532.81560213 -0.31719017 518.47051048 C-0.29942502 504.27183005 -0.28788949 490.07316694 -0.28463173 475.87447548 C-0.28442551 474.99087985 -0.28421929 474.10728422 -0.28400682 473.19691296 C-0.28299179 468.70938079 -0.28208765 464.22184859 -0.2812262 459.73431639 C-0.27492885 427.96829225 -0.25472761 396.20229071 -0.22631836 364.4362793 C-0.19875504 333.58048625 -0.17750911 302.72469938 -0.16479492 271.86889648 C-0.16440034 270.91739865 -0.16400576 269.96590082 -0.16359923 268.98556972 C-0.15964359 259.43003567 -0.15581616 249.87450158 -0.15208265 240.31896744 C-0.14447449 220.85410886 -0.13601073 201.38925069 -0.12702942 181.9243927 C-0.12661755 181.02947554 -0.12620568 180.13455837 -0.12578133 179.21252251 C-0.09819013 119.47500559 -0.05065579 59.73750126 0 0 Z " fill="#4284F3" transform="translate(0,248)"/>
<path d="M0 0 C0.06857336 60.59911019 0.13216919 121.19822479 0.16937256 181.79736328 C0.16992479 182.69456692 0.17047702 183.59177056 0.17104598 184.51616219 C0.18301823 204.01585537 0.19409887 223.51554896 0.20426132 243.01524317 C0.20925057 252.57819606 0.2144368 262.14114884 0.21972656 271.70410156 C0.2202496 272.65571906 0.22077263 273.60733655 0.22131152 274.58779094 C0.23835015 305.42012459 0.26839034 336.25242888 0.30518888 367.08474475 C0.34294238 398.77482528 0.36754714 430.46488957 0.37565996 462.15499221 C0.37681254 466.6332761 0.37811509 471.11155993 0.37950897 475.58984375 C0.37991351 476.91190061 0.37991351 476.91190061 0.38032622 478.26066568 C0.38504901 492.43562497 0.40359021 506.61053395 0.42732814 520.78547274 C0.45090968 535.04376039 0.45986377 549.30199829 0.45400551 563.56030476 C0.45096836 572.02645655 0.45902782 580.49242591 0.48319017 588.95854469 C0.49824668 594.62225464 0.49861487 600.28584583 0.48732725 605.94956414 C0.48131819 609.17141776 0.48366685 612.39286088 0.49953273 615.61469078 C0.63069317 643.90144779 -5.44062887 667.16881589 -25.5 687.9375 C-41.10112216 702.84039012 -61.25929615 712.19670022 -82.95968628 712.12025452 C-83.85094369 712.12110894 -84.7422011 712.12196337 -85.66046631 712.12284368 C-88.64068953 712.12448807 -91.6208562 712.11899416 -94.60107422 712.11352539 C-96.73986306 712.11324327 -98.87865201 712.11340174 -101.0174408 712.1139679 C-106.82062791 712.11425489 -112.62379437 712.10837389 -118.42697668 712.10139394 C-124.4928308 712.09514419 -130.55868539 712.09455531 -136.62454224 712.09336853 C-148.10974518 712.09026 -159.59493862 712.08205305 -171.08013737 712.07201904 C-184.15620542 712.06084307 -197.23227392 712.05534371 -210.30834556 712.05032361 C-237.20556898 712.03987005 -264.10278396 712.02227985 -291 712 C-291.32535231 665.00612942 -291.62783047 618.01217113 -291.80451965 571.01748657 C-291.80714274 570.32159929 -291.80976582 569.625712 -291.81246839 568.90873723 C-291.86933787 553.78406902 -291.92197072 538.65938885 -291.97024126 523.53469082 C-291.99393999 516.11720008 -292.01857461 508.69971259 -292.04370117 501.28222656 C-292.04618559 500.54411006 -292.04867002 499.80599355 -292.05122972 499.04550988 C-292.13215006 475.13451363 -292.27482892 451.22437227 -292.44964719 427.31389363 C-292.6290172 402.7361327 -292.74585759 378.15884456 -292.78438481 353.58044017 C-292.78985949 350.10641717 -292.79604659 346.63239578 -292.80266762 343.15837479 C-292.80458917 342.13280144 -292.80458917 342.13280144 -292.80654955 341.08650944 C-292.82897529 330.09424023 -292.91701976 319.10343588 -293.02980865 308.11176335 C-293.14188157 297.05267395 -293.18280539 285.99469404 -293.15652617 274.93497263 C-293.14435936 268.94486708 -293.16293251 262.95904765 -293.26490402 256.96970558 C-293.87865852 219.09706997 -293.87865852 219.09706997 -286.82836342 211.1582222 C-282.96267616 207.87068712 -278.93887119 205.71195175 -274.21422923 203.90857816 C-271.06209018 202.61514175 -268.82534384 200.80192417 -266.21875 198.625 C-265.43048828 198.02042969 -264.64222656 197.41585937 -263.83007812 196.79296875 C-262.67668945 195.90544922 -262.67668945 195.90544922 -261.5 195 C-254.11503204 189.34459703 -246.66801745 183.7852703 -239.1640625 178.2890625 C-233.22328567 173.92722968 -227.3524674 169.47945452 -221.5 165 C-214.11358208 159.34646605 -206.66805534 153.78529806 -199.1640625 148.2890625 C-193.22328567 143.92722968 -187.3524674 139.47945452 -181.5 135 C-174.11358208 129.34646605 -166.66805534 123.78529806 -159.1640625 118.2890625 C-153.22328567 113.92722968 -147.3524674 109.47945452 -141.5 105 C-134.11358208 99.34646605 -126.66805534 93.78529806 -119.1640625 88.2890625 C-113.22328567 83.92722968 -107.3524674 79.47945452 -101.5 75 C-94.11358208 69.34646605 -86.66805534 63.78529806 -79.1640625 58.2890625 C-73.22328567 53.92722968 -67.3524674 49.47945452 -61.5 45 C-54.1202289 39.3515535 -46.68248017 33.79385736 -39.18383789 28.30444336 C-32.17631089 23.16139162 -25.26521806 17.89583398 -18.37890625 12.59179688 C-1.96945256 0 -1.96945256 0 0 0 Z " fill="#34A852" transform="translate(1280,248)"/>
<path d="M0 0 C1.15511078 -0.01210762 1.15511078 -0.01210762 2.33355713 -0.02445984 C3.96404819 -0.03824428 5.59456743 -0.04899147 7.22509766 -0.05688477 C8.85572058 -0.06829109 10.48630964 -0.08855786 12.11669922 -0.1184082 C46.97991872 -0.75454646 79.04700808 13.65012325 104.14453125 37.5 C128.79825335 61.53652183 141.76596244 93.32620024 142.51342773 127.64746094 C142.54745193 128.93049103 142.58147614 130.21352112 142.61653137 131.53543091 C142.9182154 143.2909861 143.07940241 155.05054607 143.20544338 166.80915451 C143.30022652 175.4726412 143.46346888 184.12918939 143.71564907 192.7895515 C143.88793581 198.91638932 143.97815793 205.04134055 144.01032406 211.17049336 C144.0317946 214.81656791 144.08792266 218.45376328 144.23458672 222.09712982 C145.07804911 243.98428857 145.07804911 243.98428857 139.94169998 250.97645569 C135.08228391 255.80223515 129.60326989 259.32997426 123.65332222 262.66477203 C119.33377318 265.1819401 115.42532617 268.2142 111.453125 271.23828125 C109.89255609 272.38674325 108.3302721 273.53288155 106.765625 274.67578125 C101.61576513 278.47041484 96.53273721 282.35036692 91.453125 286.23828125 C84.06670708 291.8918152 76.62118034 297.45298319 69.1171875 302.94921875 C63.17641067 307.31105157 57.3055924 311.75882673 51.453125 316.23828125 C44.06670708 321.8918152 36.62118034 327.45298319 29.1171875 332.94921875 C23.17641067 337.31105157 17.3055924 341.75882673 11.453125 346.23828125 C4.06670708 351.8918152 -3.37881966 357.45298319 -10.8828125 362.94921875 C-16.82358933 367.31105157 -22.6944076 371.75882673 -28.546875 376.23828125 C-35.93329292 381.8918152 -43.37881966 387.45298319 -50.8828125 392.94921875 C-56.82358933 397.31105157 -62.6944076 401.75882673 -68.546875 406.23828125 C-75.93329292 411.8918152 -83.37881966 417.45298319 -90.8828125 422.94921875 C-97.71620869 427.96642991 -104.45334416 433.10447955 -111.18457031 438.25756836 C-117.92106317 443.40506499 -124.72083546 448.46023304 -131.56835938 453.45898438 C-136.19878995 456.84578991 -140.72536488 460.33038577 -145.19042969 463.93334961 C-147.046875 465.23828125 -147.046875 465.23828125 -149.046875 465.23828125 C-149.5278959 417.22882964 -149.89775485 369.2196338 -150.11924692 321.20824608 C-150.1455107 315.53579944 -150.17269157 309.86335754 -150.20043945 304.19091797 C-150.20594797 303.06167194 -150.21145649 301.93242591 -150.21713194 300.7689603 C-150.30842745 282.50139306 -150.47395393 264.23521838 -150.66708372 245.96847636 C-150.86370301 227.21480024 -150.98015793 208.46185166 -151.02273339 189.70718718 C-151.05150249 178.14033289 -151.14223054 166.57741458 -151.3131208 155.01177263 C-151.42442568 147.0727322 -151.45761421 139.1357158 -151.43040393 131.19595242 C-151.4169916 126.61822277 -151.43701324 122.04734829 -151.55018997 117.47084999 C-152.17612572 90.85096889 -152.17612572 90.85096889 -147.02453589 83.2572422 C-142.24354232 78.28282329 -136.83417052 74.87252364 -130.7428354 71.71262455 C-126.36178168 69.31675212 -122.49949932 66.27149776 -118.546875 63.23828125 C-116.98674541 62.08922253 -115.42451082 60.94301158 -113.859375 59.80078125 C-108.70950595 56.0061409 -103.62680952 52.12578662 -98.546875 48.23828125 C-88.79795707 40.78787408 -79.00493196 33.40763065 -69.046875 26.23828125 C-68.39557617 25.76664551 -67.74427734 25.29500977 -67.07324219 24.80908203 C-47.70443241 10.90443206 -24.17717618 0.24739766 0 0 Z " fill="#FABB04" transform="translate(1138.046875,-0.23828125)"/>
<path d="M0 0 C0.7995813 0.00054382 1.5991626 0.00108765 2.42297363 0.00164795 C14.51064735 0.03948436 25.91690617 0.62414703 37.5 4.375 C38.17256836 4.58398926 38.84513672 4.79297852 39.53808594 5.00830078 C56.06362243 10.26857527 70.77366815 18.91446208 84.5 29.375 C85.27327637 29.96200684 86.04655273 30.54901367 86.84326172 31.15380859 C90.36983064 33.83296555 93.89293528 36.5165322 97.40917969 39.20922852 C103.22705172 43.66220236 109.08856767 48.04715338 115 52.375 C122.63414236 57.96578527 130.17949937 63.66493446 137.68164062 69.43164062 C138.48279297 70.04587891 139.28394531 70.66011719 140.109375 71.29296875 C140.88945891 71.93265185 141.66954283 72.57233496 142.47326565 73.2314024 C144.89803551 74.94867595 146.57009801 75.86352616 149.24781132 76.91286182 C154.13181833 79.11817955 157.75850641 81.68420838 160.5 86.375 C163.30775441 97.07174702 162.43356316 108.72715681 162.24098432 119.69351494 C162.17597778 124.33616374 162.19814351 128.97851436 162.20951843 133.62149048 C162.2173699 141.65751973 162.17046141 149.69171699 162.08595085 157.72728539 C161.96384729 169.34491792 161.92495994 180.96166801 161.90613098 192.57987265 C161.87333166 211.43078467 161.77359182 230.28072102 161.6315918 249.13110352 C161.49382698 267.43834565 161.38769037 285.74532242 161.32397461 304.05297852 C161.32003376 305.18215988 161.3160929 306.31134125 161.31203263 307.47474023 C161.29245654 313.13972459 161.27350104 318.80471082 161.25485408 324.46969831 C161.0994474 371.43880789 160.83533416 418.4068535 160.5 465.375 C152.81761026 461.02658659 152.81761026 461.02658659 149.546875 458.4140625 C148.5098645 457.59446045 148.5098645 457.59446045 147.4519043 456.75830078 C146.72527588 456.17806152 145.99864746 455.59782227 145.25 455 C138.97490955 450.05276872 132.63955463 445.21413201 126.1875 440.5 C119.39819437 435.53470782 112.67851445 430.48834308 106 425.375 C99.38061726 420.3083719 92.72496793 415.30064541 86 410.375 C78.37259983 404.7883758 70.84355435 399.08223662 63.3359375 393.3359375 C57.60097273 388.95435674 51.82240437 384.63957042 46 380.375 C38.37259983 374.7883758 30.84355435 369.08223662 23.3359375 363.3359375 C17.60097273 358.95435674 11.82240437 354.63957042 6 350.375 C-1.62740017 344.7883758 -9.15644565 339.08223662 -16.6640625 333.3359375 C-22.39902727 328.95435674 -28.17759563 324.63957042 -34 320.375 C-41.62740017 314.7883758 -49.15644565 309.08223662 -56.6640625 303.3359375 C-62.39902727 298.95435674 -68.17759563 294.63957042 -74 290.375 C-80.72497318 285.44935075 -87.3804443 280.44140797 -94 275.375 C-108.91473273 262.86230785 -108.91473273 262.86230785 -125.21646786 252.56635666 C-127.42996016 251.37312715 -128.87313204 250.30618728 -130.5 248.375 C-131.56429179 244.20866597 -131.42530276 240.10407129 -131.3581543 235.82397461 C-131.36560165 234.54839188 -131.37304901 233.27280914 -131.38072205 231.95857239 C-131.39981029 228.4611998 -131.37509655 224.96537646 -131.34148383 221.46816325 C-131.31248685 217.78864654 -131.32023698 214.10918523 -131.32295227 210.42958069 C-131.32196183 204.23461501 -131.29353831 198.04024706 -131.24780273 191.84545898 C-131.19553043 184.73430129 -131.18109147 177.62389459 -131.1888358 170.51256555 C-131.19582031 163.63168895 -131.17970457 156.75106075 -131.15207863 149.87024117 C-131.14052398 146.96447174 -131.1358193 144.05881971 -131.13687706 141.15302849 C-131.13154276 121.75097463 -130.49606993 102.84225981 -123.25 84.5625 C-122.95335449 83.790271 -122.65670898 83.01804199 -122.35107422 82.22241211 C-109.1318387 48.77478415 -83.15246316 24.24816495 -50.734375 9.57421875 C-43.52988661 6.45500877 -36.16130589 4.09834736 -28.5 2.375 C-27.35096191 2.10115479 -27.35096191 2.10115479 -26.17871094 1.82177734 C-17.50924289 -0.02282527 -8.81972613 -0.02249351 0 0 Z " fill="#C4221F" transform="translate(130.5,-0.375)"/>
</svg>
