<svg version="1.1" id="Layer_1" xmlns="http://www.w3.org/2000/svg" xmlns:xlink="http://www.w3.org/1999/xlink" x="0px" y="0px"
	 width="100%" viewBox="0 0 600 600" enable-background="new 0 0 600 600" xml:space="preserve">
<path fill="#020612" opacity="1.000000" stroke="none" 
	d="
M350.000000,601.000000 
	C233.333328,601.000000 117.166664,601.000000 1.000000,601.000000 
	C1.000000,401.000000 1.000000,201.000000 1.000000,1.000000 
	C201.000000,1.000000 401.000000,1.000000 601.000000,1.000000 
	C601.000000,201.000000 601.000000,401.000000 601.000000,601.000000 
	C517.500000,601.000000 434.000000,601.000000 350.000000,601.000000 
M473.139343,288.048920 
	C468.485199,288.124542 463.831085,288.200195 458.325165,288.123047 
	C456.538849,288.404175 454.695557,289.110718 452.977661,288.880707 
	C449.004486,288.348816 447.761017,290.490143 447.189575,293.786407 
	C446.515045,297.677490 445.901672,301.592743 444.946655,305.418884 
	C442.582123,314.892029 444.778351,314.280365 453.478790,313.722504 
	C453.948883,313.692383 454.400085,313.367462 455.656281,313.430542 
	C460.351166,313.373688 465.046021,313.316833 470.544586,313.555328 
	C474.046844,313.655273 477.549103,313.755219 481.887329,313.936737 
	C489.039734,314.561493 493.752411,310.451996 498.679352,305.176575 
	C499.214966,304.551880 499.679138,303.843628 500.296936,303.315002 
	C508.824738,296.018677 517.341125,288.708099 525.942139,281.498688 
	C527.906799,279.851898 528.531738,278.503723 526.900024,276.132568 
	C521.177551,267.816711 515.646118,259.369446 509.904419,250.277649 
	C507.883240,245.379974 504.366302,243.250214 498.998199,244.006531 
	C496.401154,244.372421 493.728271,244.200012 490.222626,244.082626 
	C488.169281,244.105865 486.115967,244.129105 483.127655,244.025009 
	C477.788818,244.067703 472.449951,244.110413 466.229858,244.042038 
	C463.930786,244.546371 459.944397,244.531601 459.603821,245.638504 
	C457.221863,253.380859 455.593567,261.355072 453.563843,269.931885 
	C457.155853,269.931885 459.605652,269.931885 462.983978,269.960175 
	C468.650940,269.982849 474.317902,270.005493 480.850800,270.076599 
	C482.582123,270.015106 484.313477,269.953613 486.889252,269.995239 
	C494.298706,268.599884 496.129059,274.258270 499.233734,280.028625 
	C494.740051,282.747620 490.375824,285.388275 485.099884,287.872314 
	C481.423615,287.974091 477.747314,288.075897 473.139343,288.048920 
M215.648727,326.695068 
	C214.837433,322.769257 212.823608,318.641510 213.442444,314.955811 
	C215.230042,304.309204 218.081528,293.841461 220.508423,283.301880 
	C223.487534,270.364075 226.459686,257.424652 229.488480,244.252701 
	C220.216980,244.252701 211.440125,244.252701 202.371857,244.252701 
	C196.317261,270.808289 189.765060,297.116821 184.447891,323.672699 
	C180.528366,343.248138 191.944748,356.533325 212.184387,357.892761 
	C214.010345,358.015381 215.847427,358.000092 217.679367,358.001312 
	C230.673172,358.009918 243.667007,358.019653 256.660797,358.003387 
	C283.215668,357.970154 301.199646,343.879211 307.348724,318.121307 
	C311.907440,299.025604 316.305511,279.891418 320.740387,260.766327 
	C322.001770,255.326614 323.141388,249.858673 324.353790,244.326447 
	C315.118286,244.326447 306.354584,244.326447 297.451324,244.326447 
	C292.221161,266.924316 286.984741,289.265381 281.896973,311.640228 
	C278.928741,324.693848 269.850189,332.115814 256.327545,332.158661 
	C247.331940,332.187164 238.292709,332.685181 229.358658,331.942688 
	C224.858124,331.568634 220.548218,328.901031 215.648727,326.695068 
M373.745300,244.095749 
	C347.766296,246.890854 332.755707,260.212219 326.833710,285.726349 
	C325.667786,290.749451 324.479279,295.767365 323.332367,300.794769 
	C319.013763,319.725067 314.708008,338.658325 310.349060,357.803101 
	C319.513153,357.803101 328.283112,357.803101 337.322388,357.803101 
	C340.703918,343.160767 344.055908,328.646545 347.462799,313.894501 
	C372.786194,313.894501 397.729584,313.894501 422.830078,313.894501 
	C424.854431,305.274475 426.809570,296.949158 428.923737,287.946655 
	C403.859222,287.946655 379.532288,287.946655 354.747437,287.946655 
	C355.603058,286.138550 356.303772,285.002502 356.698730,283.768585 
	C359.848297,273.928955 366.497711,270.217163 376.797821,270.505554 
	C395.413422,271.026764 414.054077,270.653107 432.750153,270.653107 
	C434.966766,261.251953 436.942993,252.870224 439.018494,244.067505 
	C417.295441,244.067505 395.995148,244.067505 373.745300,244.095749 
M165.500000,244.036407 
	C136.882706,244.036407 108.265411,244.036407 79.425148,244.036407 
	C77.416039,252.768982 75.497566,261.107544 73.448494,270.013794 
	C87.744690,270.013794 101.324951,270.013794 115.313438,270.013794 
	C108.533081,299.562317 101.868027,328.608368 95.181831,357.746521 
	C104.474998,357.746521 113.229790,357.746521 122.196129,357.746521 
	C128.950882,328.423096 135.660233,299.296722 142.431595,269.901184 
	C144.444977,269.901184 146.087234,269.901215 147.729492,269.901184 
	C158.723740,269.900879 169.719299,269.980652 180.710663,269.801575 
	C182.124756,269.778564 184.481369,268.674072 184.765213,267.627014 
	C186.842377,259.963959 188.501892,252.187714 190.388214,244.036407 
	C182.123978,244.036407 174.311981,244.036407 165.500000,244.036407 
z"/>
<path fill="#FCFCFC" opacity="1.000000" stroke="none" 
	d="
M215.900421,326.982819 
	C220.548218,328.901031 224.858124,331.568634 229.358658,331.942688 
	C238.292709,332.685181 247.331940,332.187164 256.327545,332.158661 
	C269.850189,332.115814 278.928741,324.693848 281.896973,311.640228 
	C286.984741,289.265381 292.221161,266.924316 297.451324,244.326447 
	C306.354584,244.326447 315.118286,244.326447 324.353790,244.326447 
	C323.141388,249.858673 322.001770,255.326614 320.740387,260.766327 
	C316.305511,279.891418 311.907440,299.025604 307.348724,318.121307 
	C301.199646,343.879211 283.215668,357.970154 256.660797,358.003387 
	C243.667007,358.019653 230.673172,358.009918 217.679367,358.001312 
	C215.847427,358.000092 214.010345,358.015381 212.184387,357.892761 
	C191.944748,356.533325 180.528366,343.248138 184.447891,323.672699 
	C189.765060,297.116821 196.317261,270.808289 202.371857,244.252701 
	C211.440125,244.252701 220.216980,244.252701 229.488480,244.252701 
	C226.459686,257.424652 223.487534,270.364075 220.508423,283.301880 
	C218.081528,293.841461 215.230042,304.309204 213.442444,314.955811 
	C212.823608,318.641510 214.837433,322.769257 215.900421,326.982819 
z"/>
<path fill="#FCFCFC" opacity="1.000000" stroke="none" 
	d="
M374.220093,244.081635 
	C395.995148,244.067505 417.295441,244.067505 439.018494,244.067505 
	C436.942993,252.870224 434.966766,261.251953 432.750153,270.653107 
	C414.054077,270.653107 395.413422,271.026764 376.797821,270.505554 
	C366.497711,270.217163 359.848297,273.928955 356.698730,283.768585 
	C356.303772,285.002502 355.603058,286.138550 354.747437,287.946655 
	C379.532288,287.946655 403.859222,287.946655 428.923737,287.946655 
	C426.809570,296.949158 424.854431,305.274475 422.830078,313.894501 
	C397.729584,313.894501 372.786194,313.894501 347.462799,313.894501 
	C344.055908,328.646545 340.703918,343.160767 337.322388,357.803101 
	C328.283112,357.803101 319.513153,357.803101 310.349060,357.803101 
	C314.708008,338.658325 319.013763,319.725067 323.332367,300.794769 
	C324.479279,295.767365 325.667786,290.749451 326.833710,285.726349 
	C332.755707,260.212219 347.766296,246.890854 374.220093,244.081635 
z"/>
<path fill="#FCFCFC" opacity="1.000000" stroke="none" 
	d="
M166.000000,244.036407 
	C174.311981,244.036407 182.123978,244.036407 190.388214,244.036407 
	C188.501892,252.187714 186.842377,259.963959 184.765213,267.627014 
	C184.481369,268.674072 182.124756,269.778564 180.710663,269.801575 
	C169.719299,269.980652 158.723740,269.900879 147.729492,269.901184 
	C146.087234,269.901215 144.444977,269.901184 142.431595,269.901184 
	C135.660233,299.296722 128.950882,328.423096 122.196129,357.746521 
	C113.229790,357.746521 104.474998,357.746521 95.181831,357.746521 
	C101.868027,328.608368 108.533081,299.562317 115.313438,270.013794 
	C101.324951,270.013794 87.744690,270.013794 73.448494,270.013794 
	C75.497566,261.107544 77.416039,252.768982 79.425148,244.036407 
	C108.265411,244.036407 136.882706,244.036407 166.000000,244.036407 
z"/>
<path fill="#B25B34" opacity="1.000000" stroke="none" 
	d="
M498.078796,305.592834 
	C493.752411,310.451996 489.039734,314.561493 481.448975,313.485168 
	C482.677612,304.698700 484.344604,296.363831 486.011597,288.028931 
	C490.375824,285.388275 494.740051,282.747620 499.233734,280.028625 
	C496.129059,274.258270 494.298706,268.599884 486.524170,269.556549 
	C487.802612,260.835663 489.446167,252.553497 491.089722,244.271332 
	C493.728271,244.200012 496.401154,244.372421 498.998199,244.006531 
	C504.366302,243.250214 507.883240,245.379974 509.651550,250.801254 
	C508.635590,252.942947 507.541138,254.487213 507.161682,256.190735 
	C504.032806,270.237244 500.966492,284.298889 498.070251,298.394806 
	C497.597382,300.696411 498.052582,303.188690 498.078796,305.592834 
z"/>
<path fill="#E3733D" opacity="1.000000" stroke="none" 
	d="
M498.379089,305.384705 
	C498.052582,303.188690 497.597382,300.696411 498.070251,298.394806 
	C500.966492,284.298889 504.032806,270.237244 507.161682,256.190735 
	C507.541138,254.487213 508.635590,252.942947 509.720398,251.148453 
	C515.646118,259.369446 521.177551,267.816711 526.900024,276.132568 
	C528.531738,278.503723 527.906799,279.851898 525.942139,281.498688 
	C517.341125,288.708099 508.824738,296.018677 500.296936,303.315002 
	C499.679138,303.843628 499.214966,304.551880 498.379089,305.384705 
z"/>
<path fill="#5E3224" opacity="1.000000" stroke="none" 
	d="
M479.984863,270.028168 
	C474.317902,270.005493 468.650940,269.982849 462.520447,269.551605 
	C463.741638,260.813049 465.426392,252.483093 467.111145,244.153107 
	C472.449951,244.110413 477.788818,244.067703 483.569550,244.505524 
	C483.738525,246.914795 483.501099,248.849350 483.186218,250.771225 
	C482.134094,257.192657 481.054169,263.609558 479.984863,270.028168 
z"/>
<path fill="#5E3224" opacity="1.000000" stroke="none" 
	d="
M459.176941,288.275848 
	C463.831085,288.200195 468.485199,288.124542 473.579407,288.524109 
	C472.593262,297.086212 471.167084,305.173096 469.740906,313.259979 
	C465.046021,313.316833 460.351166,313.373688 455.307098,312.855408 
	C456.364258,304.278809 457.770599,296.277313 459.176941,288.275848 
z"/>
<path fill="#85452B" opacity="1.000000" stroke="none" 
	d="
M470.142761,313.407654 
	C471.167084,305.173096 472.593262,297.086212 474.045258,288.588501 
	C477.747314,288.075897 481.423615,287.974091 485.555756,287.950623 
	C484.344604,296.363831 482.677612,304.698700 481.030975,313.444366 
	C477.549103,313.755219 474.046844,313.655273 470.142761,313.407654 
z"/>
<path fill="#331E1B" opacity="1.000000" stroke="none" 
	d="
M458.751038,288.199463 
	C457.770599,296.277313 456.364258,304.278809 454.908997,312.730042 
	C454.400085,313.367462 453.948883,313.692383 453.478790,313.722504 
	C444.778351,314.280365 442.582123,314.892029 444.946655,305.418884 
	C445.901672,301.592743 446.515045,297.677490 447.189575,293.786407 
	C447.761017,290.490143 449.004486,288.348816 452.977661,288.880707 
	C454.695557,289.110718 456.538849,288.404175 458.751038,288.199463 
z"/>
<path fill="#331E1B" opacity="1.000000" stroke="none" 
	d="
M466.670502,244.097565 
	C465.426392,252.483093 463.741638,260.813049 462.056213,269.537476 
	C459.605652,269.931885 457.155853,269.931885 453.563843,269.931885 
	C455.593567,261.355072 457.221863,253.380859 459.603821,245.638504 
	C459.944397,244.531601 463.930786,244.546371 466.670502,244.097565 
z"/>
<path fill="#85452B" opacity="1.000000" stroke="none" 
	d="
M480.417847,270.052368 
	C481.054169,263.609558 482.134094,257.192657 483.186218,250.771225 
	C483.501099,248.849350 483.738525,246.914795 484.037048,244.569199 
	C486.115967,244.129105 488.169281,244.105865 490.656189,244.176971 
	C489.446167,252.553497 487.802612,260.835663 486.101929,269.504974 
	C484.313477,269.953613 482.582123,270.015106 480.417847,270.052368 
z"/>
</svg>